<?xml version="1.0" encoding="utf-8"?>
<!-- Svg Vector Icons : http://www.onlinewebfonts.com/icon -->
<!DOCTYPE svg PUBLIC "-//W3C//DTD SVG 1.1//EN" "http://www.w3.org/Graphics/SVG/1.1/DTD/svg11.dtd">
<svg version="1.1" xmlns="http://www.w3.org/2000/svg" xmlns:xlink="http://www.w3.org/1999/xlink" x="0px" y="0px" viewBox="0 0 256 256" enable-background="new 0 0 256 256" xml:space="preserve">
<metadata> Svg Vector Icons : http://www.onlinewebfonts.com/icon </metadata>
<g><g><g><g><path fill="#000000" d="M36.3,31.2c-7.9-2-16.9,1.2-24.7,2c-2,0-2.4,3.1,0,3.5c7.9,0.4,17.3,0,24.7-2C37.9,33.9,37.9,31.6,36.3,31.2z"/><path fill="#000000" d="M83.4,41.8c-5.5-5.5-14.1-6.7-21.2-6.3c-1.6,0-1.6,2.4,0,2.4c3.9,0.4,7.5,1.2,11,2.4c3.1,1.2,5.9,2.7,9,3.9C83.4,44.9,84.6,43,83.4,41.8z"/><path fill="#000000" d="M124.6,72.4c-1.6-3.5-4.7-6.7-7.9-9c-2.7-2.7-6.3-5.1-9.4-7.1c-1.2-0.8-2.4,0.8-1.2,1.6c3.1,2.4,5.9,5.1,8.2,7.9c2.7,2.7,4.7,6.3,7.5,9C123,76.3,125.4,74.4,124.6,72.4z"/><path fill="#000000" d="M132.4,96.7c-1.2-2-3.9-0.4-2.7,1.6c0.8,2,2,4.3,2.7,6.3c0.8,2.7,0.4,5.5,1.6,7.9c0.4,1.2,2.4,1.2,2.7,0C138.7,108.1,134.8,101,132.4,96.7z"/><path fill="#000000" d="M143,145.8c0-3.9,0-7.9-0.8-11.4c-0.4-2-2.7-2-2.7,0c-0.4,3.5-0.4,6.7-0.4,10.2s-0.8,7.1,0.4,10.6c0.4,1.6,3.1,1.6,3.5,0C143.8,152.1,143.4,148.9,143,145.8z"/><path fill="#000000" d="M133.6,180.3c-1.6,3.9-3.1,7.9-5.5,11.8c-2,3.5-4.7,7.1-5.1,11c-0.4,2,2.4,2.4,3.5,1.6c3.1-2.7,4.7-7.5,6.3-11.4c2-3.9,3.1-7.9,3.9-11.8C137.2,179.1,134,178.3,133.6,180.3z"/><path fill="#000000" d="M116,210.5c-2.4,2.7-4.7,5.9-7.1,8.2c-1.2,1.2-2.7,2.4-4.3,3.1c-1.6,0.8-2.4,0.8-3.5,2.4c-0.8,1.2,0,2.7,1.2,3.1c3.5,0.8,6.7-2.7,9-5.1c2.7-3.1,4.7-6.7,6.7-10.6C118.3,210.5,116.8,209.3,116,210.5z"/><path fill="#000000" d="M85.7,220.3c-2,1.6-4.3,2.7-6.7,2.7c-2,0-4.3-0.4-5.9,1.2c-0.8,0.8-0.8,2,0,2.7c3.9,3.9,11.8-1.6,14.1-4.7C88.1,221.1,86.9,219.5,85.7,220.3z"/><path fill="#000000" d="M60.7,212.1c-3.1-0.4-6.7-1.2-9.8-2.4c-3.5-1.6-5.1-4.3-7.1-7.5c-1.2-1.6-3.5-1.2-3.9,1.2c-0.4,10.6,13,12.5,20.8,11.4C61.8,214.4,61.8,212.1,60.7,212.1z"/><path fill="#000000" d="M41,186.2c-3.1-5.9-2.4-11.8-3.5-18c-0.4-1.6-2.7-1.6-3.1,0c-1.2,6.7,0.8,13.7,4.7,19.2C39.8,188.5,41.4,187.7,41,186.2z"/><path fill="#000000" d="M42.6,118.7c-7.1,6.7-8.6,16.5-8.2,25.5c0,1.6,2.7,1.6,2.7,0c0.4-8.2,2.7-16.5,7.9-23.1C46.5,119.5,44.2,117.1,42.6,118.7z"/><path fill="#000000" d="M65.4,90.4c-7.1,3.5-12.5,10.2-16.9,16.9c-1.2,1.6,1.6,3.1,2.4,1.6c4.7-5.9,10.6-10.6,16.1-15.7C68.5,91.6,66.9,89.7,65.4,90.4z"/><path fill="#000000" d="M88.5,67.7c-5.5,0-11.8,4.7-15.3,8.6c-1.6,1.6,0.8,3.9,2.4,2.4c2-2,4.3-3.5,6.7-4.7c2.4-1.2,5.1-2,7.5-3.5C90.9,69.6,89.7,67.7,88.5,67.7z"/><path fill="#000000" d="M141.1,51.2c-3.1,0-6.3,1.2-9.4,1.6c-3.9,0.8-7.9,1.2-11.4,2.7c-2,0.8-1.2,3.5,0.8,3.1c3.5-0.8,7.5-1.2,11-1.6c3.1-0.4,7.1-0.4,9.8-2.4C143.8,54,143,51.2,141.1,51.2z"/><path fill="#000000" d="M176,47.3c-5.1-1.2-11.4,0-16.9,0.4c-2,0-2,2.7,0,2.7c5.5,0.4,11.4,1.6,16.9,0.4C178,50.4,178,47.7,176,47.3z"/><path fill="#000000" d="M212.5,49.2c-2.7-0.8-5.5-0.4-8.2-0.4c-2.7,0-5.9,0-8.6,0.4c-2,0-2,3.1,0,3.1c2.7,0,5.9,0,8.6,0.4c2.7,0,5.5,0.4,8.2-0.4C214.1,52.4,214.1,50,212.5,49.2z"/><path fill="#000000" d="M245.1,50.4c-5.1-5.1-10.2-9.8-15.7-14.1c-3.9-3.1-9.8-9-14.9-8.6c-2,0-3.5,2.4-2.4,4.3c2.4,3.9,7.9,6.3,11.4,8.6c4.3,3.1,8.6,7.1,13,11c-7.9,3.1-15.7,7.5-23.1,11.4c-2.4,1.2-0.8,5.5,2,4.7c9.8-3.1,18.4-9.4,28.6-11.4C246.2,55.9,246.6,52.4,245.1,50.4z"/></g></g><g></g><g></g><g></g><g></g><g></g><g></g><g></g><g></g><g></g><g></g><g></g><g></g><g></g><g></g><g></g></g></g>
</svg>