<!DOCTYPE svg PUBLIC "-//W3C//DTD SVG 1.1//EN" "http://www.w3.org/Graphics/SVG/1.1/DTD/svg11.dtd">
<!-- Uploaded to: SVG Repo, www.svgrepo.com, Transformed by: SVG Repo Mixer Tools -->
<svg fill="#77844c" height="201px" width="201px" version="1.1" id="Layer_1" xmlns="http://www.w3.org/2000/svg" xmlns:xlink="http://www.w3.org/1999/xlink" viewBox="-51.2 -51.2 614.40 614.40" xml:space="preserve" stroke="#77844c" stroke-width="14.336000000000002">
<g id="SVGRepo_bgCarrier" stroke-width="0"/>
<g id="SVGRepo_tracerCarrier" stroke-linecap="round" stroke-linejoin="round"/>
<g id="SVGRepo_iconCarrier"> <g> <g> <g> <path d="M352.579,335.052c-18.27,14.046-69.999,23.347-96.623,23.347c-26.829,0-79.206-9.464-97.024-23.723 c-3.891-3.132-10.283-1.937-12.766,2.398c-1.527,2.645-1.519,5.905,0.009,8.533c23.211,40.064,64.247,63.991,109.781,63.991 c45.286,0,86.127-23.654,109.397-63.326c1.57-2.21,2.005-5.103,1.075-7.765C364.509,333.047,356.727,331.247,352.579,335.052z M255.956,392.533c-27.844,0-53.76-10.377-73.668-28.732c25.711,7.774,56.516,11.665,73.668,11.665 c17.161,0,47.932-3.883,73.643-11.639C309.699,382.173,283.792,392.533,255.956,392.533z"/> <path d="M507.042,122.6c-2.055-0.948-29.99-13.486-76.938-17.393c-43.877-50.636-107.111-79.605-174.148-79.605 c-67.027,0-130.26,28.977-174.137,79.611c-46.904,3.914-74.808,16.44-76.862,17.387C1.937,123.999,0,127.029,0,130.348v28.698 c0,4.634,3.695,8.414,8.32,8.533c10.607,0.265,13.227,13.884,13.295,14.268c1.839,12.096,4.233,23.272,7.608,33.446 c-2.421,13.542-3.665,27.233-3.665,40.706c0,127.044,103.356,230.4,230.4,230.4s230.4-103.356,230.4-230.4 c0-13.431-1.227-27.049-3.628-40.531c3.39-10.183,5.79-21.37,7.629-33.476c0.026-0.137,2.534-14.148,13.32-14.413 c4.625-0.119,8.32-3.9,8.32-8.533v-28.698C512,127.029,510.063,123.999,507.042,122.6z M255.956,42.668 c56.419,0,109.941,22.164,149.727,61.403c-30.711-0.323-67.446,3.375-108.861,15.019c-0.515,0.144-1.029,0.292-1.544,0.438 c-1.936,0.552-3.883,1.122-5.84,1.71c-0.614,0.184-1.228,0.365-1.842,0.552c-2.39,0.729-4.79,1.476-7.208,2.259 c-0.037,0.012-0.075,0.023-0.112,0.035c-2.199,0.711-4.423,1.313-6.663,1.826c-5.793,1.327-11.701,2.001-17.611,2.001 c-7.888,0-15.775-1.195-23.395-3.56c-0.294-0.091-0.591-0.172-0.885-0.267c-2.473-0.801-4.926-1.564-7.368-2.308 c-0.57-0.174-1.14-0.341-1.71-0.513c-2.028-0.609-4.045-1.2-6.051-1.771c-0.448-0.127-0.896-0.256-1.344-0.382 c-41.481-11.67-78.268-15.369-109.012-15.039C146.023,64.832,199.546,42.668,255.956,42.668z M469.292,255.999 c0,117.632-95.701,213.333-213.333,213.333S42.625,373.631,42.625,255.999c0-4.271,0.136-8.568,0.402-12.873 c4.508,6.228,9.873,11.798,16.287,16.675c0.026,0.02,0.052,0.039,0.077,0.059c0.485,0.368,0.975,0.732,1.473,1.092 c0.393,0.287,0.79,0.572,1.189,0.853c0.022,0.015,0.044,0.03,0.066,0.046c14.349,10.081,32.956,16.389,56.839,19.597 c0.901,0.122,1.816,0.236,2.733,0.349c0.201,0.025,0.397,0.052,0.599,0.076c1.221,0.147,2.454,0.288,3.705,0.42 c9.178,0.974,17.761,0.961,25.766,0.129c55.264-5.738,82.931-50.669,87.574-81.787c0.295-1.974,0.666-3.764,1.096-5.389 c2.728-10.287,7.856-13.908,11.376-15.231c0.867-0.325,1.631-0.509,2.244-0.622c0.697-0.127,1.194-0.161,1.394-0.192 c0.375,0.017,0.742,0.017,1.109,0c0.06,0.026,12.809-0.631,16.111,21.436c0.083,0.556,0.175,1.116,0.272,1.68c0,0,0,0,0,0.001 c0.095,0.546,0.196,1.096,0.305,1.649c0.024,0.123,0.051,0.248,0.076,0.372c0.087,0.431,0.175,0.864,0.271,1.299 c0.038,0.175,0.079,0.351,0.119,0.526c0.087,0.388,0.176,0.776,0.27,1.167c0.049,0.203,0.101,0.407,0.151,0.611 c0.091,0.366,0.183,0.732,0.279,1.1c0.058,0.221,0.119,0.444,0.179,0.666c0.096,0.354,0.193,0.708,0.294,1.064 c0.066,0.233,0.134,0.467,0.203,0.701c0.102,0.347,0.205,0.694,0.312,1.043c0.075,0.244,0.151,0.488,0.228,0.732 c0.107,0.34,0.217,0.68,0.329,1.021c0.083,0.254,0.167,0.508,0.253,0.763c0.112,0.333,0.228,0.667,0.345,1.001 c0.092,0.262,0.183,0.524,0.278,0.786c0.119,0.331,0.242,0.662,0.365,0.994c0.099,0.266,0.197,0.531,0.299,0.797 c0.125,0.327,0.255,0.655,0.384,0.983c0.108,0.273,0.215,0.547,0.325,0.821c0.129,0.319,0.263,0.638,0.396,0.957 c0.118,0.283,0.234,0.565,0.355,0.848c0.131,0.307,0.268,0.614,0.403,0.921c0.13,0.296,0.258,0.592,0.392,0.889 c0.12,0.266,0.246,0.532,0.369,0.798c0.623,1.349,1.282,2.7,1.978,4.049c0.079,0.153,0.155,0.306,0.235,0.459 c0.219,0.419,0.445,0.837,0.671,1.256c0.094,0.175,0.186,0.349,0.282,0.524c0.227,0.415,0.461,0.829,0.695,1.243 c0.1,0.176,0.198,0.353,0.299,0.529c0.239,0.417,0.484,0.834,0.73,1.25c0.101,0.17,0.2,0.34,0.302,0.51 c0.255,0.426,0.516,0.851,0.779,1.276c0.096,0.156,0.192,0.311,0.289,0.467c0.274,0.438,0.553,0.875,0.835,1.311 c0.09,0.138,0.179,0.277,0.269,0.415c0.295,0.452,0.596,0.903,0.9,1.352c0.079,0.117,0.159,0.234,0.238,0.351 c0.321,0.47,0.646,0.938,0.976,1.406c0.062,0.088,0.125,0.176,0.188,0.265c0.352,0.496,0.709,0.989,1.073,1.481 c0.035,0.048,0.071,0.095,0.106,0.143c16.999,22.949,45.773,41.932,87.808,39.744c0.109-0.006,0.217-0.008,0.327-0.014 c0.684-0.037,1.377-0.089,2.069-0.137c1.597-0.111,3.205-0.241,4.838-0.415c1.237-0.13,2.458-0.269,3.666-0.415 c0.526-0.063,1.04-0.133,1.561-0.198c0.585-0.074,1.175-0.146,1.753-0.224c24.627-3.299,43.644-9.89,58.169-20.51 c0.452-0.327,0.899-0.658,1.341-0.992c0.05-0.038,0.101-0.076,0.151-0.115c6.397-4.854,11.751-10.396,16.252-16.589 C469.164,247.516,469.292,251.766,469.292,255.999z M494.933,151.92c-13.824,4.557-20.011,19.038-21.427,27.358 c-1.761,11.598-3.991,22.04-7.164,31.336c-0.186,0.357-0.353,0.727-0.49,1.114c-4.739,13.462-11.449,24.02-20.84,32.14 c-0.107,0.092-0.218,0.181-0.326,0.272c-0.422,0.36-0.855,0.712-1.288,1.063c-11.927,9.567-28.48,15.975-51.839,19.227 c-0.823,0.114-1.649,0.226-2.488,0.331c-0.325,0.041-0.649,0.082-0.976,0.122c-1.275,0.155-2.561,0.304-3.872,0.442 c-39.223,4.096-63.7-12.299-77.966-30.701c-0.047-0.061-0.097-0.122-0.144-0.183c-10.396-13.483-15.325-28.009-16.567-36.325 c-0.246-1.649-0.545-3.217-0.88-4.727c-0.03-0.135-0.055-0.277-0.086-0.41c-0.145-0.633-0.303-1.243-0.462-1.852 c-0.047-0.181-0.09-0.37-0.138-0.548c-0.158-0.581-0.328-1.142-0.499-1.702c-0.058-0.191-0.112-0.39-0.172-0.579 c-0.171-0.539-0.353-1.058-0.536-1.577c-0.069-0.195-0.133-0.397-0.203-0.589c-0.183-0.5-0.376-0.981-0.569-1.462 c-0.078-0.195-0.153-0.398-0.233-0.59c-0.192-0.461-0.393-0.904-0.594-1.348c-0.09-0.198-0.177-0.402-0.268-0.597 c-0.198-0.421-0.404-0.826-0.611-1.23c-0.103-0.202-0.203-0.41-0.308-0.608c-0.202-0.381-0.41-0.746-0.618-1.113 c-0.118-0.208-0.234-0.42-0.354-0.623c-0.201-0.339-0.408-0.666-0.615-0.992c-0.136-0.215-0.27-0.433-0.408-0.643 c-0.197-0.298-0.398-0.584-0.599-0.871c-0.157-0.224-0.312-0.45-0.471-0.667c-0.187-0.255-0.378-0.501-0.568-0.747 c-0.181-0.234-0.361-0.47-0.545-0.696c-0.174-0.214-0.35-0.42-0.526-0.627c-0.208-0.245-0.416-0.489-0.627-0.724 c-0.156-0.174-0.315-0.342-0.473-0.51c-0.237-0.254-0.476-0.506-0.716-0.748c-0.135-0.136-0.272-0.267-0.408-0.4 c-0.27-0.263-0.542-0.522-0.816-0.772c-0.108-0.099-0.218-0.194-0.327-0.29c-0.307-0.273-0.616-0.539-0.927-0.794 c-0.078-0.064-0.156-0.126-0.234-0.188c-0.347-0.28-0.696-0.551-1.046-0.811c-0.043-0.032-0.086-0.063-0.129-0.094 c-0.39-0.286-0.782-0.561-1.175-0.823c-0.003-0.002-0.006-0.004-0.008-0.005c-5.558-3.703-11.344-5.032-15.663-5.032 c-0.19,0-0.378,0.007-0.564,0.013c-0.055,0.001-0.114,0-0.169,0.001c-9.836-0.322-27.942,6.183-33.074,33.209 c-0.171,0.901-0.33,1.823-0.471,2.77c-1.91,12.784-12.544,40.282-38.366,56.066c-13.978,8.543-32.401,13.657-56.31,11.14 c-1.326-0.14-2.628-0.291-3.917-0.448c-0.291-0.036-0.58-0.072-0.868-0.109c-0.901-0.114-1.789-0.234-2.672-0.356 c-23.398-3.272-39.959-9.715-51.879-19.345c-0.194-0.158-0.386-0.318-0.578-0.478c-0.363-0.3-0.725-0.602-1.08-0.908 c-9.313-8.124-15.977-18.666-20.687-32.098c-0.125-0.353-0.278-0.69-0.445-1.018c-3.181-9.321-5.417-19.799-7.185-31.44 c-1.399-8.192-7.578-22.648-21.402-27.204v-15.787c18.195-6.69,84.982-26.897,178.74-4.449c0.335,0.081,0.669,0.159,1.004,0.241 c1.501,0.363,3.007,0.735,4.521,1.121c1.979,0.506,3.96,1.028,5.941,1.567c0.867,0.235,1.737,0.475,2.608,0.717 c2.405,0.671,4.811,1.358,7.219,2.077c0.397,0.118,0.797,0.242,1.195,0.362c2.722,0.821,5.445,1.665,8.17,2.547h0.009 c9.591,3.106,19.524,4.676,29.525,4.676c9.869,0,19.661-1.534,29.127-4.553c0.135-0.043,0.273-0.079,0.408-0.123 c0.017-0.006,0.034-0.011,0.052-0.016c2.675-0.865,5.347-1.691,8.019-2.497c0.442-0.133,0.886-0.27,1.327-0.402 c2.447-0.729,4.893-1.428,7.337-2.108c0.74-0.206,1.48-0.409,2.217-0.609c2.17-0.591,4.339-1.161,6.507-1.713 c1.15-0.292,2.294-0.573,3.436-0.852c1.077-0.264,2.154-0.518,3.23-0.773c2.517-0.592,5.02-1.163,7.498-1.695 c0.035-0.007,0.069-0.015,0.104-0.022c88.987-19.088,152.078,0.034,169.673,6.506V151.92z"/> <path d="M96.368,147.568l-25.6,25.6c-3.337,3.337-3.337,8.73,0,12.066c1.664,1.664,3.849,2.5,6.033,2.5 c2.185,0,4.369-0.836,6.033-2.5l25.6-25.6c3.337-3.337,3.337-8.73,0-12.066C105.097,144.232,99.704,144.232,96.368,147.568z"/> </g> </g> </g> </g>
</svg>